<svg width="421" height="457" viewBox="0 0 421 457" fill="none" xmlns="http://www.w3.org/2000/svg">
<g clip-path="url(#clip0_4_766)">
<rect width="421" height="457" fill="white"/>
<path d="M249.991 170C287.542 170 317.982 200.441 317.982 237.991C317.982 275.542 287.542 305.982 249.991 305.982C212.441 305.982 182 275.542 182 237.991C182 200.441 212.441 170 249.991 170ZM249.971 212C235.628 212 224 223.628 224 237.971C224 252.314 235.628 263.94 249.971 263.94C264.313 263.94 275.94 252.313 275.94 237.971C275.94 223.628 264.314 212 249.971 212Z" fill="#88BACB"/>
<path d="M366.6 436H300.2C295.533 436 292.267 431.467 290.4 422.4C289.467 417.467 289 413.733 289 411.2C289 408.667 289.4 407 290.2 406.2C320.067 375.4 335 354.467 335 343.4C335 339.667 334 336.867 332 335C330.133 333.133 327.067 332.2 322.8 332.2C318.667 332.2 314.467 333 310.2 334.6C306.067 336.2 302.8 337.933 300.4 339.8C295.2 333.533 291.6 326.933 289.6 320C288.933 317.733 288.6 315.667 288.6 313.8C288.6 311.8 288.933 309.933 289.6 308.2C290.667 304.733 295.6 301.467 304.4 298.4C313.333 295.333 322.733 293.8 332.6 293.8C362.467 293.8 377.4 307.067 377.4 333.6C377.4 345.333 373.4 357.267 365.4 369.4C357.4 381.4 348.067 391.8 337.4 400.6L377.8 399C378.467 406.067 378.8 412.2 378.8 417.4C378.8 422.6 377.733 427 375.6 430.6C373.467 434.2 370.467 436 366.6 436Z" fill="#88BACB"/>
<path d="M212 46C283.834 46 345.725 88.5543 373.851 149.827C373.919 152.297 373.446 155.228 371.646 157.505L322.229 180.278C319.243 180.464 314.936 180.147 312.144 178.388C294.807 140.401 256.495 114 212.013 114C151.255 114 102 163.255 102 224.013C102 284.771 151.255 334.024 212.013 334.024C217.012 334.024 221.933 333.688 226.756 333.042C229.353 333.318 232.518 334.146 234.74 335.827L258.886 387.509C258.673 390.433 257.558 394.655 254.195 396.928C254.201 396.938 254.207 396.949 254.213 396.959C240.681 400.251 226.545 402 212 402C113.693 402 34 322.307 34 224C34 125.693 113.693 46 212 46Z" fill="#D8D8D8"/>
</g>
<defs>
<clipPath id="clip0_4_766">
<rect width="421" height="457" fill="white"/>
</clipPath>
</defs>
</svg>
